HIERARCHY
ROOT Pelvis
{
	OFFSET 0.000000 0.000000 0.000000
	CHANNELS 6 Xposition Yposition Zposition Zrotation Yrotation Xrotation 
	JOINT Left_hip
	{
		OFFSET 0.076090 -0.089427 -0.010735
		CHANNELS 3 Zrotation Yrotation Xrotation
		JOINT Left_knee
		{
			OFFSET 0.030200 -0.359518 -0.003501
			CHANNELS 3 Zrotation Yrotation Xrotation
			JOINT Left_ankle
			{
				OFFSET -0.011005 -0.371022 -0.045888
				CHANNELS 3 Zrotation Yrotation Xrotation
				JOINT Left_foot
				{
					OFFSET 0.023930 -0.052103 0.111084
					CHANNELS 3 Zrotation Yrotation Xrotation
					End Site
					{
						OFFSET 0.000000 0.000000 0.000000
					}
				}
			}
		}
	}
	JOINT Right_hip
	{
		OFFSET -0.073836 -0.088112 -0.007709
		CHANNELS 3 Zrotation Yrotation Xrotation
		JOINT Right_knee
		{
			OFFSET -0.035715 -0.367809 -0.006536
			CHANNELS 3 Zrotation Yrotation Xrotation
			JOINT Right_ankle
			{
				OFFSET 0.013718 -0.371958 -0.043815
				CHANNELS 3 Zrotation Yrotation Xrotation
				JOINT Right_foot
				{
					OFFSET -0.021936 -0.046387 0.114542
					CHANNELS 3 Zrotation Yrotation Xrotation
					End Site
					{
						OFFSET 0.000000 0.000000 0.000000
					}
				}
			}
		}
	}
	JOINT Spine1
	{
		OFFSET -0.001865 0.102064 -0.019455
		CHANNELS 3 Zrotation Yrotation Xrotation
		JOINT Spine2
		{
			OFFSET 0.003082 0.129260 -0.001938
			CHANNELS 3 Zrotation Yrotation Xrotation
			JOINT Spine3
			{
				OFFSET 0.001104 0.048093 0.026561
				CHANNELS 3 Zrotation Yrotation Xrotation
				JOINT Neck
				{
					OFFSET -0.002010 0.204222 -0.047183
					CHANNELS 3 Zrotation Yrotation Xrotation
					JOINT Head
					{
						OFFSET 0.005050 0.063649 0.048489
						CHANNELS 3 Zrotation Yrotation Xrotation
						End Site
						{
							OFFSET 0.000000 0.000000 0.000000
						}
					}
				}
				JOINT Left_collar
				{
					OFFSET 0.072979 0.114065 -0.031633
					CHANNELS 3 Zrotation Yrotation Xrotation
					JOINT Left_shoulder
					{
						OFFSET 0.083419 0.032092 -0.006530
						CHANNELS 3 Zrotation Yrotation Xrotation
						JOINT Left_elbow
						{
							OFFSET 0.239393 -0.012014 -0.025060
							CHANNELS 3 Zrotation Yrotation Xrotation
							JOINT Left_wrist
							{
								OFFSET 0.227297 0.008116 0.000384
								CHANNELS 3 Zrotation Yrotation Xrotation
								JOINT Left_palm
								{
									OFFSET 0.074607 -0.009248 -0.012277
									CHANNELS 3 Zrotation Yrotation Xrotation
									End Site
									{
										OFFSET 0.000000 0.000000 0.000000
									}
								}
							}
						}
					}
				}
				JOINT Right_collar
				{
					OFFSET -0.074980 0.111880 -0.037894
					CHANNELS 3 Zrotation Yrotation Xrotation
					JOINT Right_shoulder
					{
						OFFSET -0.087565 0.034353 -0.009323
						CHANNELS 3 Zrotation Yrotation Xrotation
						JOINT Right_elbow
						{
							OFFSET -0.236838 -0.013719 -0.019794
							CHANNELS 3 Zrotation Yrotation Xrotation
							JOINT Right_wrist
							{
								OFFSET -0.235053 0.006433 -0.003853
								CHANNELS 3 Zrotation Yrotation Xrotation
								JOINT Right_palm
								{
									OFFSET -0.075499 -0.006894 -0.009792
									CHANNELS 3 Zrotation Yrotation Xrotation
									End Site
									{
										OFFSET 0.000000 0.000000 0.000000
									}
								}
							}
						}
					}
				}
			}
		}
	}
}
MOTION
Frames: 12
Frame Time: 0.100000
0.000000 0.000000 0.000000 174.742798 27.700424 -12.850913 1.551832 2.055923 3.372551 -3.169178 -4.837971 -5.818480 -0.695524 8.583304 -4.481876 3.998833 7.921610 -4.177025 1.108280 -0.447792 3.976000 2.890993 5.134719 -5.609477 5.886737 -12.261031 -8.527416 -10.255998 7.852543 4.125081 2.106233 0.308045 3.553360 1.531935 -3.153074 -0.037881 1.027944 -2.737959 0.953466 4.343070 -0.640025 -15.351285 1.097059 -8.041201 1.310717 -30.939036 -1.844754 3.413136 -54.275171 -6.615977 9.621712 1.090666 -5.113176 10.760350 -7.974236 -0.513987 3.821431 -9.938976 -5.154556 -13.543393 29.042075 4.179282 2.775593 51.231531 1.579875 15.796343 -4.860537 15.353690 0.629343 5.432950 -0.548557 -0.728827 12.047831 7.432481 -7.306684 
0.000959 0.000296 -0.001502 174.500066 28.320373 -12.655317 1.604330 1.834369 2.624460 -3.176414 -4.781826 -5.387330 -0.718616 8.614149 -4.628783 3.900040 7.377528 -3.966469 1.226674 -0.494525 3.479850 2.864485 4.988636 -5.496297 5.659873 -12.228043 -8.504810 -9.638757 7.334803 4.328281 1.995983 0.486777 4.034481 1.863846 -2.947102 -0.093442 1.347404 -2.489434 1.038716 4.412011 -0.835887 -17.061711 1.423386 -8.732797 -0.003732 -29.985046 -1.768029 3.674436 -53.590005 -5.703232 11.081681 0.566331 -10.315245 14.648940 -6.784592 -1.656206 4.478457 -10.087278 -5.105238 -13.509920 28.938264 4.661037 2.716639 50.299199 1.687795 15.657046 -4.786618 15.075386 1.961449 4.779433 -0.331612 0.613000 11.988589 7.431200 -7.634117 
0.001949 0.000529 -0.003332 174.393120 28.810781 -12.339295 1.685307 1.583391 2.047999 -3.328898 -4.735931 -5.435622 -0.579206 8.433165 -4.365289 3.517966 7.206492 -3.827270 1.232207 -0.545148 2.750125 2.921714 4.594526 -5.082557 5.424208 -12.204368 -8.546448 -9.176146 7.250177 4.618668 1.976077 0.790748 4.416319 1.948418 -2.664454 -0.360730 1.494781 -2.087888 0.734403 4.317786 -0.988815 -17.709455 1.843440 -9.112257 -0.442494 -29.184603 -2.930022 3.524439 -52.857136 -6.695722 11.905786 -0.086393 -14.158834 16.218457 -6.367275 -2.181879 4.533706 -10.104102 -5.039776 -13.073138 28.576746 5.632937 3.035704 49.795772 1.825845 15.621953 -4.633561 15.473539 2.794329 4.867624 -0.220381 1.285074 11.788643 7.435056 -7.712544 
0.004729 0.000247 -0.003905 174.378181 28.701830 -11.997642 2.332326 1.764231 2.052758 -3.946897 -4.620911 -6.381809 -0.847895 7.811845 -3.665182 3.343849 7.502946 -3.736963 1.383434 -0.433551 1.668344 3.029168 4.123608 -4.008792 5.267041 -11.996059 -8.724816 -8.986573 7.439637 4.700438 1.947732 0.763149 4.679185 2.013970 -2.585599 -0.404832 1.659480 -1.947955 0.260036 4.370056 -0.579702 -17.996275 2.169088 -9.136383 -0.435977 -29.124119 -4.964472 3.096450 -53.002527 -9.124490 11.927413 0.430050 -14.606899 14.794830 -6.158423 -2.026511 4.727752 -9.848254 -5.001413 -12.668410 28.321216 7.023402 3.120864 49.867835 2.919436 15.493059 -5.172578 15.434488 2.232379 5.028680 -0.231772 1.565001 11.496666 7.372315 -7.559606 
0.010243 -0.001137 -0.001707 174.624597 27.712908 -12.218541 2.708754 1.957427 2.309169 -4.016971 -3.938357 -5.856143 -0.612151 7.755831 -3.672858 2.751046 7.862969 -3.545286 1.717778 -0.248987 1.357385 3.072718 3.878021 -2.726119 5.155666 -11.180395 -8.810043 -8.787109 7.339643 4.776466 1.789081 0.650176 5.369561 1.979445 -2.806320 -0.086673 1.762541 -1.956340 0.133262 4.353587 -0.102311 -18.066095 2.538348 -8.767097 -0.379881 -28.919286 -7.403930 2.932664 -53.909997 -12.003926 11.631184 1.942749 -14.028984 11.924164 -6.148034 -1.745611 4.067096 -9.251745 -4.787782 -11.725698 27.910038 8.826134 3.197779 50.902004 4.418375 15.005891 -5.937094 13.498720 0.315235 5.507084 -0.519224 0.665170 11.014982 7.210134 -7.206488 
0.018180 -0.002571 0.004408 175.238896 26.320721 -12.617031 2.725744 2.193379 2.602699 -3.619806 -3.182777 -4.194084 -0.141401 8.295564 -4.044238 2.312808 8.124750 -4.022634 2.223591 0.078186 1.267934 2.862067 4.398968 -0.748418 5.288289 -10.947056 -9.543144 -9.170075 7.967957 4.372289 1.679762 0.288756 5.992139 1.774317 -3.095208 0.077241 1.588835 -2.258957 0.517727 3.128648 1.135339 -17.408179 1.639704 -7.230355 1.062780 -28.405577 -9.147488 2.820084 -53.914543 -14.093499 11.495514 2.159381 -15.053503 11.018012 -5.748109 -1.609141 3.681649 -9.065787 -4.681060 -10.811700 27.484805 9.381046 3.519161 51.277804 4.110954 15.394441 -5.566262 14.136608 0.792202 5.720127 -0.551089 0.536204 10.974522 7.192690 -7.049362 
0.025210 -0.003489 0.017971 176.419279 24.404006 -13.093813 2.057347 2.737562 2.977002 -2.595860 -2.375963 -1.013444 0.998625 9.589822 -5.536902 1.337204 8.098211 -4.920651 2.518578 0.371760 1.538118 2.638991 5.736076 2.177679 4.964348 -10.330171 -11.692322 -8.307453 8.382178 4.315794 1.894685 -0.233373 6.157412 1.389921 -3.156551 0.042555 0.959486 -2.548343 1.175858 0.097347 4.510390 -15.388382 -1.666996 -3.169187 3.671868 -28.374290 -8.907303 2.638952 -52.383956 -14.413407 11.500840 1.585149 -18.747635 12.649149 -5.232088 -1.798445 3.851231 -9.600535 -4.697241 -9.941171 28.329295 7.892027 4.107243 50.065378 2.744813 16.004623 -4.774923 15.638604 1.956782 5.561548 -0.421879 1.000925 11.722771 7.420119 -7.138093 
0.029574 0.000315 0.031665 176.712329 23.146673 -14.843282 0.677168 0.157906 -3.170542 0.328838 -0.623712 16.582528 2.371011 12.766960 -9.536637 0.645531 8.414658 -8.165985 3.675268 0.097006 3.479676 2.452941 7.465574 4.537593 4.795165 -9.856719 -14.488040 -9.325545 8.323629 4.009141 3.493072 -0.052791 8.251961 0.873824 -3.424811 -1.280034 0.553466 -2.754436 2.713713 -4.597369 8.587042 -14.839575 -5.694566 3.294919 6.100078 -28.273156 -7.255374 1.376932 -52.673850 -14.135132 10.541673 3.228396 -21.131110 11.126863 -4.341062 -1.517651 1.906524 -9.837743 -4.591869 -7.342388 28.600284 5.411442 3.947299 49.159661 1.256947 15.968473 -4.869689 16.358301 0.727101 4.674955 -0.447516 -0.018199 12.387730 7.538494 -6.561299 
0.025580 0.000503 0.052320 176.215819 23.992604 -17.131567 -0.289223 -4.429539 -13.216253 0.575150 1.807309 37.613683 3.628181 13.826877 -8.468605 -0.789230 9.151042 -11.711369 4.375553 -1.051196 8.559713 2.379975 9.133852 2.576383 3.536909 -10.468363 -15.791113 -10.054273 8.596358 3.839083 4.889462 1.582790 10.370797 0.944390 -3.942565 -1.093235 0.788046 -2.613208 3.745235 -9.013748 11.081975 -14.961227 -8.377484 8.623493 6.259681 -29.282454 -7.001191 1.122628 -53.068736 -13.940676 9.673769 4.585933 -19.289377 9.327008 -4.616412 -0.426692 -0.405379 -10.300029 -4.647361 -5.262835 29.920015 4.490007 5.180185 47.252849 0.140394 15.473552 -4.961370 13.089911 -1.094522 4.129230 -1.324911 -0.760633 13.244410 7.666035 -6.030976 
0.017129 -0.004663 0.084510 177.210138 24.001817 -16.990455 -1.630905 -4.379077 -18.704894 -1.755103 4.918973 32.448989 2.823894 11.280518 -5.975047 -0.309480 9.089403 -11.318690 3.613433 -2.543425 12.195038 1.817921 10.118582 0.932679 3.967814 -9.924852 -15.931598 -10.206386 8.889608 2.277637 4.719069 3.653394 11.005119 0.383768 -2.995737 -1.589871 0.496799 -1.226313 4.219503 -10.340659 13.333163 -14.247776 -9.341014 10.147613 7.323079 -28.901764 -4.300529 0.695553 -53.571667 -11.832472 8.980918 4.833115 -15.192409 9.693327 -5.478054 -0.639887 -0.751153 -9.789178 -4.461940 -5.561752 30.489768 3.663663 5.992869 48.329202 0.766596 15.595256 -3.900369 6.245837 -0.346578 4.903728 -1.851313 0.680105 13.040218 7.321226 -6.042303 
-0.000292 -0.004761 0.130699 177.893786 23.558440 -17.603712 -3.480080 -4.808043 -20.139718 -2.899955 4.953214 16.831213 0.261646 10.318584 -3.241084 3.692646 9.354988 -9.719531 3.781552 -3.047040 16.486696 0.827482 11.667880 1.620924 4.059561 -11.053752 -18.778094 -9.632024 9.730673 1.259214 5.082030 4.857183 11.732964 -0.397448 -2.139923 -0.738345 -0.018149 0.004109 5.008187 -11.094879 15.071624 -14.783962 -11.021586 9.773700 7.340870 -29.070964 -1.212329 0.127093 -52.464676 -7.871258 7.657396 5.840490 -10.714661 7.054818 -4.740304 -0.647405 -1.230588 -8.638295 -4.087233 -6.736191 30.670490 3.665077 5.976333 48.270152 2.132766 16.847626 -2.671266 6.590607 0.641717 4.819268 -1.206534 1.823049 11.978123 6.598705 -6.005012 
-0.025005 -0.003083 0.191800 178.521968 21.254138 -17.114641 -3.358558 -4.822370 -21.531125 -3.705676 3.398523 3.222530 -4.749404 9.088100 2.323896 9.685197 9.103791 -9.302585 3.201810 -3.323317 20.882099 0.369321 14.123876 1.910348 3.548417 -10.994760 -22.097744 -8.367907 9.330050 0.777800 5.273371 6.129106 10.960742 -0.777268 -1.339113 0.063449 -0.153340 1.075945 5.211241 -11.346191 16.725843 -14.524671 -12.685956 9.005830 7.768269 -29.126786 2.283244 -0.330009 -52.266060 -2.790428 7.196209 6.128235 -5.645389 4.989471 -3.619206 -0.915371 -2.069341 -8.276125 -3.603950 -8.773939 30.558539 3.710636 5.504473 46.855333 5.336469 17.313100 -2.858911 9.064548 -0.097497 3.178607 -0.031686 1.278311 11.256419 5.722406 -6.234748 
